<?xml version="1.0" encoding="UTF-8" standalone="no"?>
<svg
   xmlns:dc="http://purl.org/dc/elements/1.1/"
   xmlns:cc="http://creativecommons.org/ns#"
   xmlns:rdf="http://www.w3.org/1999/02/22-rdf-syntax-ns#"
   xmlns:svg="http://www.w3.org/2000/svg"
   xmlns="http://www.w3.org/2000/svg"
   xmlns:xlink="http://www.w3.org/1999/xlink"
   xmlns:sodipodi="http://sodipodi.sourceforge.net/DTD/sodipodi-0.dtd"
   xmlns:inkscape="http://www.inkscape.org/namespaces/inkscape"
   inkscape:version="1.0 (4035a4fb49, 2020-05-01)"
   inkscape:export-ydpi="327.68219"
   inkscape:export-xdpi="327.68219"
   inkscape:export-filename="/home/user/Desktop/app-icon-store.png"
   sodipodi:docname="app_icon_square.svg"
   viewBox="0 0 39.687 39.688"
   version="1.1"
   height="150"
   width="149.999"
   id="svg8">
  <sodipodi:namedview
     inkscape:current-layer="svg8"
     inkscape:window-maximized="1"
     inkscape:window-y="27"
     inkscape:window-x="0"
     inkscape:cy="116.95323"
     inkscape:cx="74.044203"
     inkscape:zoom="2.0741799"
     inkscape:snap-page="true"
     showgrid="false"
     id="namedview34"
     inkscape:window-height="1016"
     inkscape:window-width="1920"
     inkscape:pageshadow="2"
     inkscape:pageopacity="0"
     guidetolerance="10"
     gridtolerance="10"
     objecttolerance="10"
     borderopacity="1"
     bordercolor="#666666"
     pagecolor="#ffffff" />
  <defs
     id="defs2">
    <rect
       y="-816.669"
       x="-105.178"
       height="94.85"
       width="85.951"
       id="rect2384" />
    <rect
       y="-396.852"
       x="-387.085"
       height="193.911"
       width="312.949"
       id="rect1966" />
    <linearGradient
       id="linearGradient1910">
      <stop
         style="stop-color:#3256bb;stop-opacity:1"
         offset="0"
         id="stop1906" />
      <stop
         style="stop-color:#3157c0;stop-opacity:0"
         offset="1"
         id="stop1908" />
    </linearGradient>
    <clipPath
       clipPathUnits="userSpaceOnUse"
       id="clipPath933">
      <circle
         style="fill:none;stroke:#000;stroke-width:1.55765;stroke-linecap:round;stroke-linejoin:round;paint-order:stroke fill markers"
         r="22.719"
         cy="-120.073"
         cx="104.321"
         id="circle935" />
    </clipPath>
    <clipPath
       clipPathUnits="userSpaceOnUse"
       id="clipPath1087">
      <circle
         style="fill:none;stroke:#000;stroke-width:1.33847;stroke-linecap:round;stroke-linejoin:round;paint-order:stroke fill markers"
         r="189.387"
         cy="-243.652"
         cx="120.117"
         id="circle1089" />
    </clipPath>
    <clipPath
       clipPathUnits="userSpaceOnUse"
       id="clipPath1142">
      <path
         style="fill:none;fill-opacity:1;stroke:#ffcd40;stroke-width:1.33001;stroke-linecap:round;stroke-linejoin:round;stroke-miterlimit:4;stroke-dasharray:none;stroke-opacity:1;paint-order:stroke fill markers"
         d="m -200.74589,-420.11079 a 73.492783,41.546574 0 0 0 -63.38583,20.55792 73.492783,41.546574 0 0 0 63.42512,20.55844 73.492783,41.546574 0 0 0 63.42515,-20.55844 73.492783,41.546574 0 0 0 -63.42515,-20.55792 73.492783,41.546574 0 0 0 -0.0393,0 z"
         id="path1144" />
    </clipPath>
    <linearGradient
       xlink:href="#linearGradient1910"
       gradientUnits="userSpaceOnUse"
       y2="-1398.739"
       y1="-1531.701"
       x2="-538.492"
       x1="-664.019"
       id="linearGradient1912" />
    <clipPath
       clipPathUnits="userSpaceOnUse"
       id="clipPath1935">
      <circle
         r="62.799"
         cy="-410.485"
         cx="-200.707"
         id="circle1937"
         style="fill:#3860c9;fill-opacity:1;stroke:none;stroke-width:1.5;stroke-linecap:round;stroke-linejoin:round;paint-order:stroke fill markers" />
    </clipPath>
    <clipPath
       clipPathUnits="userSpaceOnUse"
       id="clipPath2023">
      <path
         d="m -273.09501,-746.55699 c 0,0 9.81817,51.01667 29.4545,51.01667 19.63633,0 14.38718,-51.01667 34.02351,-51.01667 19.63633,0 14.38715,51.01667 34.02348,51.01667 19.63633,0 24.88555,-51.01667 24.88555,-51.01667 h 27.27773 v 149.95068 h -182.40574 l 2.35739,-162.14387 z"
         id="path2025"
         style="fill:none;stroke:#fff;stroke-width:10;stroke-linecap:butt;stroke-linejoin:miter;stroke-miterlimit:4;stroke-dasharray:none;stroke-opacity:1" />
    </clipPath>
    <clipPath
       clipPathUnits="userSpaceOnUse"
       id="clipPath2334">
      <circle
         r="62.799"
         cy="-721.049"
         cx="-211.9"
         id="circle2336"
         style="fill:#3860c9;fill-opacity:1;stroke:none;stroke-width:1.5;stroke-linecap:round;stroke-linejoin:round;paint-order:stroke fill markers" />
    </clipPath>
    <filter
       style="color-interpolation-filters:sRGB"
       y="-.051"
       x="-.025"
       height="1.102"
       width="1.05"
       id="filter3171">
      <feGaussianBlur
         stdDeviation="4.913"
         id="feGaussianBlur3173" />
    </filter>
  </defs>
  <metadata
     id="metadata5">
    <rdf:RDF>
      <cc:Work
         rdf:about="">
        <dc:format>image/svg+xml</dc:format>
        <dc:type
           rdf:resource="http://purl.org/dc/dcmitype/StillImage" />
      </cc:Work>
    </rdf:RDF>
  </metadata>
  <rect
     y="5.5511151e-17"
     x="-0.00036677002"
     height="39.688"
     width="39.687733"
     id="rect892"
     style="fill:#0a69cd;fill-opacity:1;stroke-width:0.330882;stroke-linecap:round;stroke-linejoin:round;paint-order:stroke fill markers" />
  <rect
     style="fill:#075bb3;fill-opacity:1;stroke-width:0.330882;stroke-linecap:round;stroke-linejoin:round;paint-order:stroke fill markers"
     id="rect903"
     width="39.687733"
     height="39.688"
     x="-0.00036677002"
     y="19.93775" />
  <g
     transform="matrix(1.0494891,0,0,1.0494891,-0.98203947,-0.98204855)"
     id="g901">
    <path
       style="color:#000000;font-style:normal;font-variant:normal;font-weight:400;font-stretch:normal;font-size:medium;line-height:normal;font-family:sans-serif;font-variant-ligatures:normal;font-variant-position:normal;font-variant-caps:normal;font-variant-numeric:normal;font-variant-alternates:normal;font-variant-east-asian:normal;font-feature-settings:normal;font-variation-settings:normal;text-indent:0;text-align:start;text-decoration:none;text-decoration-line:none;text-decoration-style:solid;text-decoration-color:#000000;letter-spacing:normal;word-spacing:normal;text-transform:none;writing-mode:lr-tb;direction:ltr;text-orientation:mixed;dominant-baseline:auto;baseline-shift:baseline;text-anchor:start;white-space:normal;shape-padding:0;shape-margin:0;inline-size:0;clip-rule:nonzero;visibility:visible;isolation:auto;mix-blend-mode:normal;color-interpolation:sRGB;color-interpolation-filters:linearRGB;solid-color:#000000;solid-opacity:1;fill:#075bb3;fill-opacity:1;fill-rule:nonzero;stroke:none;stroke-width:3.08821;stroke-linecap:butt;stroke-linejoin:miter;stroke-miterlimit:4;stroke-dasharray:none;stroke-dashoffset:0;stroke-opacity:1;color-rendering:auto;image-rendering:auto;shape-rendering:auto;text-rendering:auto"
       id="path2479"
       d="m 20.486494,10.201641 3.2e-4,0.0021 c -0.206824,0 -0.407484,0.01647 -0.603438,0.04507 l -7.822076,0.58524 0.08032,0.224363 -9.3904825,0.962118 a 18.612674,19.486815 0 0 0 -1.5289481,6.600766 c 0.035109,0.09616 0.069316,0.191405 0.1054339,0.288701 0.1358531,0.366002 0.2788479,0.739943 0.4298461,1.120676 0.054402,0.137171 0.1097442,0.274387 0.1656373,0.411659 0.055896,0.137263 0.1125781,0.274531 0.1700045,0.411661 0.057426,0.13713 0.1156876,0.27407 0.1746834,0.410843 0.5311224,1.231252 1.1266363,2.443046 1.8004872,3.551608 0.074874,0.123168 0.1507263,0.24494 0.2275564,0.365449 0.076806,0.120474 0.1546852,0.239537 0.2334832,0.35712 0.078849,0.117656 0.1585294,0.233773 0.2394099,0.348303 0.080856,0.114499 0.1627218,0.227358 0.2456486,0.338505 0.078843,0.105585 0.1592691,0.209882 0.2408136,0.313195 0.033969,0.04303 0.068966,0.08498 0.1034064,0.127531 0.049691,0.06142 0.099201,0.123004 0.1498846,0.183377 0.032506,0.03869 0.065811,0.07642 0.098727,0.114631 0.055769,0.0648 0.1116422,0.129387 0.1686007,0.192685 0.030649,0.03405 0.06196,0.06716 0.092957,0.100752 0.041714,0.04522 0.082741,0.09136 0.1250858,0.135696 l 11.221224,11.748254 a 18.612674,19.486815 0 0 0 2.582975,0.188603 18.612674,19.486815 0 0 0 18.612678,-19.486819 18.612674,19.486815 0 0 0 -1.485745,-7.629345 L 29.23252,11.272676 28.811876,10.832277 h -2.996757 l -0.0075,0.02107 -4.317489,-0.528415 c -0.0071,-0.0019 -0.0142,-0.0039 -0.02137,-0.0056 -0.05479,-0.01333 -0.110537,-0.02446 -0.166261,-0.0356 -0.02401,-0.0048 -0.04757,-0.0105 -0.07174,-0.01486 -0.05932,-0.01077 -0.119633,-0.01922 -0.179986,-0.02743 -0.02068,-0.0028 -0.04097,-0.0067 -0.06176,-0.0093 -0.07987,-0.0096 -0.160574,-0.01669 -0.242217,-0.02172 -0.0015,0 -0.003,-3.1e-5 -0.0045,-9.78e-4 h -1.6e-4 c -0.08425,-0.0051 -0.169502,-0.0078 -0.25563,-0.0078 z" />
    <path
       style="fill:#3860c9;fill-opacity:1;stroke:none;stroke-width:0.463232;stroke-linecap:round;stroke-linejoin:round;paint-order:stroke fill markers"
       id="path1105-6"
       d="M 38.751625,19.843724 A 18.953573,19.843725 0 0 1 19.798054,39.687449 18.953573,19.843725 0 0 1 0.84447979,19.843724 18.953573,19.843725 0 0 1 19.798054,2.0956824e-6 18.953573,19.843725 0 0 1 38.751625,19.843724" />
    <path
       style="fill:#0a69cd;fill-opacity:1;stroke:none;stroke-width:0.463232;stroke-linecap:round;stroke-linejoin:round;paint-order:stroke fill markers"
       id="circle2037"
       d="M 38.751625,19.843724 A 18.953573,19.843725 0 0 1 19.798054,39.687449 18.953573,19.843725 0 0 1 0.84447979,19.843724 18.953573,19.843725 0 0 1 19.798054,2.0956824e-6 18.953573,19.843725 0 0 1 38.751625,19.843724" />
    <path
       id="circle2304"
       d="m 20.487118,11.783291 c -5.926544,0 -4.342347,16.120873 -10.268891,16.120873 -4.6281052,0 -7.4489791,-9.830541 -8.4629452,-14.138177 A 18.953572,19.843724 0 0 0 0.84443245,19.843728 18.953572,19.843724 0 0 0 19.798054,39.687504 18.953572,19.843724 0 0 0 38.751676,19.843728 18.953572,19.843724 0 0 0 37.95172,14.14009 c -0.700312,4.473912 -2.695564,13.764074 -7.195867,13.764074 -5.926544,0 -4.342191,-16.120873 -10.268735,-16.120873 z"
       clip-path="none"
       style="fill:#075bb3;fill-opacity:1;stroke:none;stroke-width:0.463232;stroke-linecap:round;stroke-linejoin:round;paint-order:stroke fill markers" />
    <path
       sodipodi:nodetypes="cccccccsscccscccccccccccccccccccccsccccccssscccccccscccsscscssscscccscccscccccccc"
       style="color:#000000;font-style:normal;font-variant:normal;font-weight:400;font-stretch:normal;font-size:medium;line-height:normal;font-family:sans-serif;font-variant-ligatures:normal;font-variant-position:normal;font-variant-caps:normal;font-variant-numeric:normal;font-variant-alternates:normal;font-variant-east-asian:normal;font-feature-settings:normal;font-variation-settings:normal;text-indent:0;text-align:start;text-decoration:none;text-decoration-line:none;text-decoration-style:solid;text-decoration-color:#000000;letter-spacing:normal;word-spacing:normal;text-transform:none;writing-mode:lr-tb;direction:ltr;text-orientation:mixed;dominant-baseline:auto;baseline-shift:baseline;text-anchor:start;white-space:normal;shape-padding:0;shape-margin:0;inline-size:0;clip-rule:nonzero;visibility:visible;isolation:auto;mix-blend-mode:normal;color-interpolation:sRGB;color-interpolation-filters:linearRGB;solid-color:#000000;solid-opacity:1;fill:#075bb3;fill-opacity:1;fill-rule:nonzero;stroke:none;stroke-width:3.08822;stroke-linecap:butt;stroke-linejoin:miter;stroke-miterlimit:4;stroke-dasharray:none;stroke-dashoffset:0;stroke-opacity:1;color-rendering:auto;image-rendering:auto;shape-rendering:auto;text-rendering:auto"
       id="path2809"
       d="m 20.486806,10.204908 c -0.329561,0 -0.64487,0.03941 -0.946722,0.110058 h -1.59e-4 l -4.481878,0.520413 h -2.996754 l 4.226716,11.800648 -2.540084,-2.659215 c -0.123331,0.452364 -0.247296,0.898113 -0.373075,1.330179 -0.125775,0.432056 -0.253515,0.850492 -0.384148,1.248207 -0.05246,0.159701 -0.105889,0.313303 -0.159398,0.465872 L 0.85063297,10.043281 c -0.79794237,2.000268 0.50109243,6.416215 0.37139643,8.579674 0.1009077,0.276501 0.2056973,0.557527 0.3152101,0.843078 0.071639,0.186798 0.1451947,0.375446 0.2206938,0.565808 0.2176843,0.54888 0.4471942,1.099357 0.6896877,1.64419 0.060623,0.136221 0.1220828,0.272195 0.1843534,0.407578 0.062268,0.135393 0.1253867,0.270154 0.1893444,0.404475 0.021519,0.04524 0.043776,0.08995 0.065506,0.135043 0.1718657,0.35667 0.3491491,0.70938 0.5335643,1.055032 h 1.597e-4 c 0.1126314,0.211103 0.2282468,0.419069 0.3457796,0.624757 0.026952,0.04715 0.05343,0.0949 0.080635,0.141737 0.027978,0.04819 0.056731,0.09537 0.085002,0.143208 0.1928026,0.326262 0.3914305,0.645077 0.5976669,0.95281 h 1.597e-4 c 0.078783,0.117552 0.1585959,0.233707 0.23941,0.34814 h 1.597e-4 c 0.080814,0.114429 0.1626111,0.227255 0.2454926,0.338341 h 1.597e-4 c 0.00332,0.0044 0.00682,0.0088 0.010138,0.01323 0.077222,0.103278 0.1556685,0.205487 0.2355107,0.3065 0.021912,0.02774 0.044646,0.0546 0.066754,0.08214 0.060683,0.07555 0.1215465,0.15089 0.1837295,0.224853 0.034301,0.04081 0.069426,0.08055 0.1041862,0.120837 0.05063,0.05866 0.1012437,0.117275 0.1528481,0.174722 0.040519,0.0451 0.08178,0.0891 0.1229022,0.13341 0.034504,0.03716 0.068318,0.07529 0.1032504,0.111855 L 17.214455,39.14178 c 0.855969,0.125652 1.719258,0.188727 2.583599,0.188767 10.279499,2e-6 18.61268,-8.724545 18.612678,-19.486819 -4.9e-5,-2.36974 1.22158,-7.382372 0.416107,-9.596984 -0.173574,0.901581 -1.536157,4.670629 -1.836368,5.876042 -0.03753,0.150689 -0.07616,0.302697 -0.115728,0.455911 -0.118716,0.459709 -0.246531,0.929614 -0.383836,1.403172 -0.02686,0.09266 -0.05477,0.185692 -0.08235,0.278577 l -7.596368,-7.425067 h -2.996757 l -0.777809,2.186811 -1.21483,-1.271884 c -0.01536,-0.01612 -0.03142,-0.03144 -0.04695,-0.04735 -0.03111,-0.0319 -0.06231,-0.0637 -0.09405,-0.09487 -0.02544,-0.025 -0.05136,-0.04945 -0.0772,-0.07397 -0.03074,-0.02917 -0.06149,-0.05826 -0.0928,-0.08671 -0.02798,-0.02544 -0.05641,-0.05027 -0.08485,-0.07511 -0.0313,-0.02733 -0.06252,-0.05471 -0.09436,-0.08132 -0.02985,-0.02493 -0.06029,-0.04904 -0.09062,-0.07332 -0.03032,-0.02427 -0.0606,-0.0486 -0.0914,-0.07217 -0.0325,-0.02487 -0.06555,-0.04891 -0.09857,-0.07299 -0.03056,-0.02228 -0.06101,-0.04472 -0.09202,-0.0663 -0.03292,-0.02291 -0.06639,-0.04485 -0.09982,-0.06695 -0.03257,-0.02152 -0.06505,-0.04312 -0.0981,-0.06385 -0.03188,-0.02 -0.06438,-0.0389 -0.0967,-0.05813 -0.03516,-0.02092 -0.07006,-0.04222 -0.105745,-0.06222 -0.03214,-0.01801 -0.06492,-0.03485 -0.09748,-0.05209 -0.03684,-0.0195 -0.07351,-0.03931 -0.110893,-0.05781 -0.0322,-0.01593 -0.06503,-0.03055 -0.09764,-0.04572 -0.0384,-0.01785 -0.07661,-0.03614 -0.115573,-0.05291 -0.03403,-0.01463 -0.06879,-0.02784 -0.10325,-0.04164 -0.03853,-0.01542 -0.07682,-0.03141 -0.115884,-0.04572 -0.03441,-0.01261 -0.06952,-0.0237 -0.104342,-0.03543 -0.04021,-0.01356 -0.08012,-0.02762 -0.120874,-0.04001 -0.03799,-0.01153 -0.0768,-0.02136 -0.11526,-0.03184 -0.03765,-0.01027 -0.07497,-0.02131 -0.113077,-0.03054 -0.04383,-0.01062 -0.08846,-0.01919 -0.132884,-0.02841 -0.03464,-0.0072 -0.06888,-0.0154 -0.103874,-0.02172 -0.03724,-0.0068 -0.07528,-0.01139 -0.11292,-0.01714 -0.04392,-0.0067 -0.08747,-0.01429 -0.131949,-0.0196 -0.0214,-0.0025 -0.04336,-0.0037 -0.06488,-0.0059 -0.06034,-0.0063 -0.120672,-0.01253 -0.182013,-0.01617 -0.08246,-0.0049 -0.165755,-0.0075 -0.250016,-0.0075 z" />
    <path
       id="path3169"
       d="m -266.70898,-3047.9375 c -17.7464,0 -32.31841,8.3932 -43.42579,20.1816 l 16.22071,43.5879 c 0.94156,-2.0345 1.89761,-3.9705 2.875,-5.7851 8.15198,-15.1353 13.95898,-20.1895 24.33008,-20.1895 10.3711,0 16.17812,5.0542 24.33007,20.1895 0.73286,1.3606 1.45166,2.8069 2.16407,4.2929 l 9.29296,28.3633 17.39649,53.0918 9.28711,28.3438 c 2.55442,6.3949 5.35475,12.5932 8.52148,18.4726 11.32063,21.0183 30.86267,40.0625 57.59961,40.0625 27.16131,0 48.069918,-18.2258 63.078128,-39.789 15.008195,-21.5633 26.030419,-48.2545 34.724609,-74.5938 0.77536,-2.3489 1.52425,-4.6687 2.25,-6.959 -0.740004,-29.0694 -6.815502,-57.7554 -17.923828,-84.6289 -3.58095,18.8067 -10.207107,49.4157 -20.216797,79.7403 -8.04268,24.3654 -18.391587,48.3843 -29.851562,64.8496 -11.45998,16.4653 -22.11385,23.584 -32.06055,23.584 -10.3711,0 -16.17813,-5.0543 -24.33008,-20.1895 -20.58092,-50.4344 -32.77762,-80.7425 -51.08203,-128.6973 l -10.65039,-24.6816 c -10.99092,-11.2935 -25.2568,-19.2461 -42.52929,-19.2461 z m -105.50977,7.541 80.82617,215.5391 h 48.11133 l 20.84375,-55.5821 -17.83789,-51.7363 -27.06055,72.6778 -67.35547,-180.8985 z m 172.23828,0 -5.66601,15.2149 20.63086,44.9531 22.5625,-60.168 z m -293.68555,14.666 c -9.38245,22.0045 -15.3845,45.3009 -17.80273,69.0996 3.0534,8.3551 6.44086,17.1344 10.22266,26.2422 10.904,26.2603 24.16971,52.837 40.78515,74.1075 16.61548,21.27 37.99881,38.955 65.16016,38.955 26.7369,0 46.27894,-19.0442 57.59961,-40.0625 2.9046,-5.3928 5.50618,-11.0509 7.88867,-16.8847 l -21.28516,-56.7832 c -6.17836,21.646 -12.48171,42.0211 -19.87304,55.7441 -8.15199,15.1352 -13.95902,20.1895 -24.33008,20.1895 -9.94674,0 -22.28446,-7.6678 -35.375,-24.4258 -13.09055,-16.758 -25.51989,-40.8856 -35.66992,-65.3301 -12.86198,-30.9756 -22.18842,-62.1167 -27.32032,-80.8516 z"
       transform="matrix(0.07985529,0,0,0.08360568,41.785137,265.02842)"
       style="color:#000000;font-style:normal;font-variant:normal;font-weight:400;font-stretch:normal;font-size:medium;line-height:normal;font-family:sans-serif;font-variant-ligatures:normal;font-variant-position:normal;font-variant-caps:normal;font-variant-numeric:normal;font-variant-alternates:normal;font-variant-east-asian:normal;font-feature-settings:normal;font-variation-settings:normal;text-indent:0;text-align:start;text-decoration:none;text-decoration-line:none;text-decoration-style:solid;text-decoration-color:#000000;letter-spacing:normal;word-spacing:normal;text-transform:none;writing-mode:lr-tb;direction:ltr;text-orientation:mixed;dominant-baseline:auto;baseline-shift:baseline;text-anchor:start;white-space:normal;shape-padding:0;shape-margin:0;inline-size:0;clip-rule:nonzero;display:inline;overflow:visible;visibility:visible;opacity:0.17201;isolation:auto;mix-blend-mode:normal;color-interpolation:sRGB;color-interpolation-filters:linearRGB;solid-color:#000000;solid-opacity:1;vector-effect:none;fill:#000000;fill-opacity:1;fill-rule:nonzero;stroke:none;stroke-width:37.7953;stroke-linecap:butt;stroke-linejoin:miter;stroke-miterlimit:4;stroke-dasharray:none;stroke-dashoffset:0;stroke-opacity:1;filter:url(#filter3171);color-rendering:auto;image-rendering:auto;shape-rendering:auto;text-rendering:auto;enable-background:accumulate;stop-color:#000000" />
    <path
       sodipodi:nodetypes="scccsscccccsssccasscccscccccccccccccccscssccsssac"
       style="color:#000000;font-style:normal;font-variant:normal;font-weight:400;font-stretch:normal;font-size:medium;line-height:normal;font-family:sans-serif;font-variant-ligatures:normal;font-variant-position:normal;font-variant-caps:normal;font-variant-numeric:normal;font-variant-alternates:normal;font-variant-east-asian:normal;font-feature-settings:normal;font-variation-settings:normal;text-indent:0;text-align:start;text-decoration:none;text-decoration-line:none;text-decoration-style:solid;text-decoration-color:#000000;letter-spacing:normal;word-spacing:normal;text-transform:none;writing-mode:lr-tb;direction:ltr;text-orientation:mixed;dominant-baseline:auto;baseline-shift:baseline;text-anchor:start;white-space:normal;shape-padding:0;shape-margin:0;inline-size:0;clip-rule:nonzero;display:inline;overflow:visible;visibility:visible;isolation:auto;mix-blend-mode:normal;color-interpolation:sRGB;color-interpolation-filters:linearRGB;solid-color:#000000;solid-opacity:1;vector-effect:none;fill:#ffffff;fill-opacity:1;fill-rule:nonzero;stroke:none;stroke-width:3.08821;stroke-linecap:butt;stroke-linejoin:miter;stroke-miterlimit:4;stroke-dasharray:none;stroke-dashoffset:0;stroke-opacity:1;color-rendering:auto;image-rendering:auto;shape-rendering:auto;text-rendering:auto;enable-background:accumulate;stop-color:#000000"
       id="path2047"
       d="m 20.487014,10.20353 c -1.417144,0 -2.580797,0.701719 -3.46778,1.687295 l 1.29531,3.644196 c 0.07519,-0.170095 0.151534,-0.331954 0.229584,-0.483667 0.650979,-1.265398 1.114698,-1.687956 1.942886,-1.687956 0.828187,0 1.291908,0.422558 1.942884,1.687956 0.05852,0.113753 0.115923,0.234673 0.172813,0.358911 l 0.742092,2.371334 1.389202,4.438774 0.741625,2.369704 c 0.203984,0.534649 0.427605,1.052863 0.680485,1.544414 0.904012,1.757248 2.464547,3.349452 4.599634,3.349452 2.168974,0 3.838637,-1.523779 5.037122,-3.326584 1.198484,-1.802815 2.078667,-4.034352 2.772944,-6.236467 0.06192,-0.196381 0.121719,-0.39033 0.179674,-0.581813 0.611911,-2.435596 0.968406,-6.845558 0.08135,-9.092335 -0.285957,1.572347 -1.986103,5.826515 -3.127078,8.683621 -0.732179,1.833443 -1.468665,4.045202 -2.383805,5.421797 -0.91514,1.376591 -1.765908,1.971755 -2.560204,1.971755 -0.828188,0 -1.29191,-0.422567 -1.942886,-1.687958 C 27.16937,20.419357 26.1954,17.885427 24.733696,13.876133 L 23.883202,11.812611 C 23.005519,10.868411 21.866313,10.20353 20.487014,10.20353 Z M 12.0615,10.834 18.515898,28.854292 h 3.841944 l 1.664484,-4.646977 -1.42445,-4.325451 -2.160928,6.076279 L 15.058257,10.834 Z m 13.754138,0 -0.452461,1.272052 1.647484,3.758334 L 28.812396,10.834 Z M 0.85063297,10.043281 c -0.7492384,1.8397 -0.095178,5.707736 0.0910162,7.793998 0.24383053,0.698534 0.51433843,1.432535 0.81633493,2.193998 0.8707431,2.195511 1.9300785,4.417473 3.2569098,6.195808 1.3268343,1.778294 3.0344056,3.256858 5.2033831,3.256858 2.135084,0 3.695619,-1.592204 4.599635,-3.349452 0.231947,-0.450868 0.439697,-0.923917 0.629951,-1.411657 l -1.699732,-4.747399 c -0.493375,1.809732 -0.996731,3.513205 -1.586967,4.660524 -0.650979,1.265391 -1.114703,1.687958 -1.942887,1.687958 -0.7942995,0 -1.7795302,-0.641071 -2.8248795,-2.042136 C 6.3480482,22.880716 5.4187574,20.677979 4.5449645,18.819812 3.1942399,15.947425 1.2604438,11.609624 0.85063297,10.043281 Z" />
  </g>
</svg>
